<svg xmlns="http://www.w3.org/2000/svg" viewBox="0 0 73.63 53.73"><defs><style>.cls-1{fill:#8b5e3c;}.cls-2{fill:#3ab58d;}.cls-3{fill:#6d6e71;}.cls-4{fill:#ccecfc;}.cls-5{fill:#231f20;}</style></defs><g id="Layer_2" data-name="Layer 2"><g id="Layer_1-2" data-name="Layer 1"><path class="cls-1" d="M19.43,18.67A19.43,19.43,0,0,0,0,38.09V44.3H6.68a6.81,6.81,0,0,1,12.58,0h6.67V18.67Zm-.32,15.42h-11a11,11,0,0,1,11-11Z"/><path class="cls-2" d="M73.63,0V44.3H70.78a6.81,6.81,0,0,0-12.58,0H29.33V0Z"/><path class="cls-3" d="M19.78,46.92a6.82,6.82,0,0,1-13.63,0,6.56,6.56,0,0,1,.53-2.62,6.81,6.81,0,0,1,13.1,2.62Z"/><path class="cls-3" d="M71.3,46.92a6.82,6.82,0,0,1-13.63,0,6.56,6.56,0,0,1,.53-2.62,6.81,6.81,0,0,1,13.1,2.62Z"/><path class="cls-4" d="M19.11,23.11v11h-11a11,11,0,0,1,11-11Z"/><rect class="cls-5" x="25.93" y="37.56" width="3.4" height="3.77"/></g></g></svg>