<svg xmlns="http://www.w3.org/2000/svg" viewBox="0 0 46.05 46.05"><defs><style>.cls-1{fill:#fff;}.cls-1,.cls-2{stroke:#231f20;stroke-miterlimit:10;stroke-width:0.82px;}.cls-2{fill:#4788c8;}</style></defs><g id="Layer_2" data-name="Layer 2"><g id="Layer_1-2" data-name="Layer 1"><path class="cls-1" d="M41.9.41H4.14A3.74,3.74,0,0,0,.41,4.15V41.91a3.73,3.73,0,0,0,3.73,3.73H41.9a3.73,3.73,0,0,0,3.74-3.73V4.15A3.74,3.74,0,0,0,41.9.41ZM40,31.33,33.59,37.7l-27.5-.13L27,16.67,7,16.58l6.24-6.24H40.88l-6.37,6.37L19.88,31.33Z"/><polygon class="cls-2" points="40.88 10.34 34.51 16.71 26.99 16.67 7.01 16.58 13.25 10.34 40.88 10.34"/><polygon class="cls-2" points="34.51 16.71 19.88 31.33 12.33 31.33 26.99 16.67 34.51 16.71"/><polygon class="cls-2" points="39.96 31.33 33.59 37.7 6.09 37.57 12.33 31.33 39.96 31.33"/></g></g></svg>