<svg xmlns="http://www.w3.org/2000/svg" viewBox="0 0 58.62 82.18"><defs><style>.cls-1{fill:#c49a6c;}.cls-2{fill:#8b5e3c;}.cls-3{fill:#ccecfc;}.cls-4{fill:#a7a9ac;}.cls-5{fill:#d1d3d4;}</style></defs><g id="Layer_2" data-name="Layer 2"><g id="Layer_1-2" data-name="Layer 1"><path class="cls-1" d="M53.15,3.73H48.27v.86A2.87,2.87,0,0,1,45.4,7.46H13.22a2.87,2.87,0,0,1-2.87-2.87V3.73H5.47A5.47,5.47,0,0,0,0,9.2V76.7a5.47,5.47,0,0,0,5.47,5.48H53.15a5.47,5.47,0,0,0,5.47-5.48V9.2A5.47,5.47,0,0,0,53.15,3.73ZM51.53,75H7.09V13.39H51.53Z"/><path class="cls-2" d="M48.27,0V4.59A2.87,2.87,0,0,1,45.4,7.46H13.22a2.87,2.87,0,0,1-2.87-2.87V0Z"/><path class="cls-3" d="M7.09,13.39V75H51.53V13.39ZM10.35,20H22.54v6.34H10.35Zm0,9h18v2.45h-18Zm0,4.22h18v2.23h-18ZM48.27,61.69H10.35V59.76H48.27Zm0-4.07H10.35V55.69H48.27Zm0-4.07H10.35V51.62H48.27Zm0-4.07H10.35V47.55H48.27Zm0-4.07H10.35V43.48H48.27Z"/><rect class="cls-4" x="10.35" y="20.02" width="12.19" height="6.34"/><rect class="cls-4" x="10.35" y="29.02" width="17.97" height="2.45"/><rect class="cls-4" x="10.35" y="33.24" width="17.97" height="2.23"/><rect class="cls-5" x="10.35" y="43.48" width="37.92" height="1.93"/><rect class="cls-5" x="10.35" y="47.55" width="37.92" height="1.93"/><rect class="cls-5" x="10.35" y="51.62" width="37.92" height="1.93"/><rect class="cls-5" x="10.35" y="55.69" width="37.92" height="1.93"/><rect class="cls-5" x="10.35" y="59.76" width="37.92" height="1.93"/></g></g></svg>