<svg xmlns="http://www.w3.org/2000/svg" viewBox="0 0 58.62 82.18"><defs><style>.cls-1{fill:#c49a6c;}.cls-2{fill:#8b5e3c;}.cls-3{fill:#ccecfc;}.cls-4,.cls-6,.cls-8{fill:none;}.cls-5{fill:#939598;}.cls-6,.cls-8{stroke:#231f20;stroke-miterlimit:10;}.cls-6{stroke-width:0.76px;}.cls-7{fill:#bcbec0;}.cls-8{stroke-width:0.35px;}</style></defs><g id="Layer_2" data-name="Layer 2"><g id="Layer_1-2" data-name="Layer 1"><path class="cls-1" d="M53.15,3.73H48.27v.86A2.87,2.87,0,0,1,45.4,7.46H13.22a2.87,2.87,0,0,1-2.87-2.87V3.73H5.47A5.47,5.47,0,0,0,0,9.2V76.7a5.47,5.47,0,0,0,5.47,5.48H53.15a5.47,5.47,0,0,0,5.47-5.48V9.2A5.47,5.47,0,0,0,53.15,3.73ZM51.53,75H7.09V13.39H51.53Z"/><path class="cls-2" d="M48.27,0V4.59A2.87,2.87,0,0,1,45.4,7.46H13.22a2.87,2.87,0,0,1-2.87-2.87V0Z"/><path class="cls-3" d="M7.09,13.39V75H51.53V13.39Zm3.26,11.1H32.17v2.37H10.35Zm7.5,11.26H32.63v.89H17.85Zm0,8.41H32.63v.89H17.85Zm0,8.37H32.63v.89H17.85ZM15.54,63.79H10.35V58.61h5.19Zm0-8.22H10.35V50.38h5.19Zm0-8.37H10.35V42h5.19Zm0-8.41H10.35V33.61h5.19ZM32.63,61.64H17.85v-.89H32.63Zm10.93-2.15H17.85v-.88H43.56Zm0-8.22H17.85v-.89H43.56Zm0-8.37H17.85V42H43.56Zm0-8.41H17.85v-.88H43.56ZM48.27,23H10.35V20.64H48.27Z"/><rect class="cls-4" x="10.35" y="33.61" width="5.19" height="5.18"/><rect class="cls-4" x="10.35" y="42.01" width="5.19" height="5.19"/><rect class="cls-4" x="10.35" y="50.38" width="5.19" height="5.19"/><rect class="cls-4" x="10.35" y="58.61" width="5.19" height="5.18"/><rect class="cls-5" x="10.35" y="20.64" width="37.92" height="2.37"/><rect class="cls-5" x="10.35" y="24.49" width="21.82" height="2.37"/><rect class="cls-6" x="10.35" y="33.61" width="5.19" height="5.18"/><rect class="cls-5" x="17.85" y="33.61" width="25.71" height="0.88"/><rect class="cls-7" x="17.85" y="35.75" width="14.78" height="0.89"/><rect class="cls-6" x="10.35" y="42.01" width="5.19" height="5.19"/><rect class="cls-5" x="17.85" y="42.01" width="25.71" height="0.89"/><rect class="cls-7" x="17.85" y="44.16" width="14.78" height="0.89"/><rect class="cls-6" x="10.35" y="50.38" width="5.19" height="5.19"/><rect class="cls-5" x="17.85" y="50.38" width="25.71" height="0.89"/><rect class="cls-7" x="17.85" y="52.53" width="14.78" height="0.89"/><rect class="cls-6" x="10.35" y="58.61" width="5.19" height="5.18"/><rect class="cls-5" x="17.85" y="58.61" width="25.71" height="0.88"/><rect class="cls-7" x="17.85" y="60.75" width="14.78" height="0.89"/><polyline class="cls-8" points="11.22 36.44 11.93 37.57 14.66 34.83"/><polyline class="cls-8" points="11.22 44.85 11.93 45.97 14.66 43.24"/></g></g></svg>