<svg xmlns="http://www.w3.org/2000/svg" viewBox="0 0 64.89 64.89"><defs><style>.cls-1{fill:#ccecfc;}.cls-2{fill:#414042;}.cls-3{fill:#58595b;}.cls-4{fill:#231f20;}</style></defs><g id="Layer_2" data-name="Layer 2"><g id="Layer_1-2" data-name="Layer 1"><path class="cls-1" d="M32.44,0A32.45,32.45,0,1,0,64.89,32.44,32.45,32.45,0,0,0,32.44,0ZM7.83,33H1.68V32H7.83ZM32,1.78h1V7.93H32Zm1.45,61.48h-1V57.11h1ZM47.72,13.64,32.33,32.86a.47.47,0,0,1-.1.1,1,1,0,0,1-.77.38.94.94,0,0,1-.43-.1L17.56,26.75a1,1,0,0,1-.46-1.32A1,1,0,0,1,18.41,25l12.78,6.16,15-18.72a1,1,0,0,1,1.76.62A1,1,0,0,1,47.72,13.64ZM56.86,33V32H63v1Z"/><path class="cls-2" d="M47.94,13a1,1,0,0,1-.22.61L32.33,32.86a.47.47,0,0,1-.1.1A1,1,0,0,1,31,33a1,1,0,0,1-.16-1.38l.4-.5,15-18.72a1,1,0,0,1,1.76.62Z"/><path class="cls-3" d="M32.23,33a1,1,0,0,1-.77.38.94.94,0,0,1-.43-.1L17.56,26.75a1,1,0,0,1-.46-1.32A1,1,0,0,1,18.41,25l12.78,6.16-.4.5A1,1,0,0,0,31,33,1,1,0,0,0,32.23,33Z"/><rect class="cls-4" x="31.96" y="1.78" width="0.97" height="6.15"/><rect class="cls-4" x="32.44" y="57.11" width="0.97" height="6.15"/><rect class="cls-4" x="56.86" y="32.04" width="6.15" height="0.96"/><rect class="cls-4" x="1.68" y="32.04" width="6.15" height="0.96"/></g></g></svg>