<svg xmlns="http://www.w3.org/2000/svg" viewBox="0 0 210 210"><defs><style>.cls-1{fill:#fff;}.cls-2{fill:#3a6be8;}.cls-3{fill:none;}</style></defs><g id="Layer_2" data-name="Layer 2"><g id="Layer_1-2" data-name="Layer 1"><polygon class="cls-1" points="141.07 122.22 150.53 170.58 106.39 148.67 63.32 172.61 70.52 123.86 34.44 90.3 83.03 82.08 103.8 37.4 126.63 81.07 175.55 87.01 141.07 122.22"/><path class="cls-2" d="M105,0A105,105,0,1,0,210,105,105,105,0,0,0,105,0Zm45.53,170.58-44.14-21.91L63.32,172.61l7.2-48.75L34.44,90.3,83,82.08,103.8,37.4l22.83,43.67L175.55,87l-34.48,35.21Z"/><polygon class="cls-3" points="141.07 122.22 150.53 170.58 106.39 148.67 63.32 172.61 70.52 123.86 34.44 90.3 83.03 82.08 103.8 37.4 126.63 81.07 175.55 87.01 141.07 122.22"/></g></g></svg>